<svg preserveAspectRatio="none" overflow="visible" style="display: block;" width="27.5413" height="27.5413" viewBox="0 0 27.5413 27.5413" fill="none" xmlns="http://www.w3.org/2000/svg">
<g id="Icons/User">
<rect id="Bg" width="27.5413" height="27.5413" fill="white" fill-opacity="0.01"/>
<path id="Fill 6" fill-rule="evenodd" clip-rule="evenodd" d="M13.7313 4.07312C16.4763 4.07312 18.7095 6.306 18.7095 9.05103C18.7095 11.7961 16.4763 14.0295 13.7313 14.0295C10.9863 14.0295 8.75288 11.7961 8.75288 9.05103C8.75288 6.306 10.9863 4.07312 13.7313 4.07312M13.7313 15.8072C17.4568 15.8072 20.4872 12.7763 20.4872 9.05103C20.4872 5.3255 17.4568 2.29511 13.7313 2.29511C10.0058 2.29511 6.97487 5.3255 6.97487 9.05103C6.97487 12.7763 10.0058 15.8072 13.7313 15.8072" fill="#94A3B8"/>
<path id="Fill 8" fill-rule="evenodd" clip-rule="evenodd" d="M9.62188 18.7705H17.9194C21.3106 18.7705 24.1212 21.3043 24.5574 24.5783H2.98414C3.42035 21.3043 6.2307 18.7705 9.62188 18.7705M2.03656 26.3561H25.505C25.9962 26.3561 26.394 25.958 26.394 25.4673C26.394 20.7945 22.5923 16.9925 17.9194 16.9925H9.62188C4.94903 16.9925 1.14755 20.7945 1.14755 25.4673C1.14755 25.958 1.5454 26.3561 2.03656 26.3561" fill="#94A3B8"/>
</g>
</svg>
